<?xml version="1.0" encoding="utf-8"?>
<!-- Generator: Adobe Illustrator 22.0.1, SVG Export Plug-In . SVG Version: 6.00 Build 0)  -->
<svg version="1.1" id="pineapple" xmlns="http://www.w3.org/2000/svg" xmlns:xlink="http://www.w3.org/1999/xlink" x="0px" y="0px"
	 viewBox="0 0 800 700" style="enable-background:new 0 0 800 700;" xml:space="preserve">
<style type="text/css">
	.st0{fill:#E9C0C3;}
	.st1{fill:#EFDF9C;stroke:#EFDF9C;stroke-width:3;stroke-miterlimit:10;}
	.st2{fill:#F2E6B2;}
	.st3{clip-path:url(#SVGID_2_);}
	.st4{fill:#EFDF9C;}
	.st5{fill:#67B77F;}
	.st6{fill:#59A071;}
	.st7{fill:#71C48C;}
	.st8{fill:#399661;}
	.st9{fill:#55AF7A;}
	.st10{fill:#5DA86E;}
	.st11{fill:#75C595;}
	.st12{fill:#5FAD7B;}
	.st13{fill:#5CB277;}
	.st14{fill:#70C386;}
	.st15{fill:#FFFFFF;}
</style>
<g id="pineapple-shadow">
	<ellipse class="st0" cx="402.9" cy="627" rx="187.3" ry="43.8"/>
</g>
<g id="pineapple-body">
	<path class="st1" d="M528.3,485.3c0,60.3-5,123-42.6,153.3c-21,16.9-65.9,17-92.8,17c-23.9,0-63.3-1.4-82.8-15.1
		c-41.4-29.1-52.6-91.2-52.6-155.1c0-45.3,14.1-86.4,37-116.9c24.7-32.8,59.6-53.3,98.4-53.3c37.4,0,71.2,19.1,95.7,49.9
		C513.2,395.8,528.3,438.3,528.3,485.3z"/>
	<path class="st2" d="M506,485.3c0,60.3-4.9,123-41.2,153.3c-20.3,16.9-63.7,17-89.6,17c-23.1,0-61.2-1.4-80-15.1
		c-40-29.1-50.8-91.2-50.8-155.1c0-45.3,13.6-86.4,35.7-116.9c23.8-32.8,57.6-53.3,95.1-53.3c36.1,0,68.8,19.1,92.5,49.9
		C491.4,395.8,506,438.3,506,485.3z"/>
	<g>
		<defs>
			<path id="SVGID_1_" d="M488.9,365c-24.5-30.8-58.3-49.9-95.7-49.9c-3,0-6,0.1-9,0.4c-2.9-0.2-5.8-0.4-8.7-0.4
				c-37.5,0-71.2,20.5-95.1,53.3c-22.1,30.5-35.7,71.6-35.7,116.9c0,63.9,10.8,126,50.8,155.1c18.9,13.7,56.9,15.1,80,15.1
				c3.4,0,7.1,0,11.1,0c2.3,0,4.6,0,6.7,0c26.8,0,71.7,0,92.8-17c37.6-30.2,42.6-93,42.6-153.3C528.6,438.3,513.4,395.8,488.9,365z"
				/>
		</defs>
		<clipPath id="SVGID_2_">
			<use xlink:href="#SVGID_1_"  style="overflow:visible;"/>
		</clipPath>
		<g class="st3">
			<g>
				<g>
					<path class="st4" d="M-29.3,710.4c5.3-5.3,10.6-10.6,15.9-15.9c14.4-14.4,28.8-28.8,43.2-43.2c21.2-21.2,42.4-42.4,63.7-63.7
						c25.9-25.9,51.7-51.7,77.6-77.6c28.5-28.5,56.9-56.9,85.4-85.4c28.7-28.7,57.5-57.5,86.2-86.2c26.7-26.7,53.4-53.4,80-80
						c22.6-22.6,45.3-45.3,67.9-67.9c16.2-16.2,32.4-32.4,48.7-48.7c7.7-7.7,15.8-15.2,23.2-23.2c0.3-0.3,0.7-0.7,1-1
						c1.1-1.1-0.6-2.9-1.8-1.8c-5.3,5.3-10.6,10.6-15.9,15.9c-14.4,14.4-28.8,28.8-43.2,43.2c-21.2,21.2-42.4,42.4-63.7,63.7
						c-25.9,25.9-51.7,51.7-77.6,77.6c-28.5,28.5-56.9,56.9-85.4,85.4c-28.7,28.7-57.5,57.5-86.2,86.2c-26.7,26.7-53.4,53.4-80,80
						c-22.6,22.6-45.3,45.3-67.9,67.9C25.6,652,9.3,668.3-6.9,684.5c-7.7,7.7-15.8,15.2-23.2,23.2c-0.3,0.3-0.7,0.7-1,1
						C-32.2,709.8-30.4,711.6-29.3,710.4L-29.3,710.4z"/>
				</g>
			</g>
			<g>
				<g>
					<path class="st4" d="M5.4,745.1c5.3-5.3,10.6-10.6,15.9-15.9c14.4-14.4,28.8-28.8,43.2-43.2c21.2-21.2,42.4-42.4,63.7-63.7
						c25.9-25.9,51.7-51.7,77.6-77.6c28.5-28.5,56.9-56.9,85.4-85.4c28.7-28.7,57.5-57.5,86.2-86.2c26.7-26.7,53.4-53.4,80-80
						c22.6-22.6,45.3-45.3,67.9-67.9c16.2-16.2,32.4-32.4,48.7-48.7c7.7-7.7,15.8-15.2,23.2-23.2c0.3-0.3,0.7-0.7,1-1
						c1.1-1.1-0.6-2.9-1.8-1.8c-5.3,5.3-10.6,10.6-15.9,15.9c-14.4,14.4-28.8,28.8-43.2,43.2c-21.2,21.2-42.4,42.4-63.7,63.7
						c-25.9,25.9-51.7,51.7-77.6,77.6c-28.5,28.5-56.9,56.9-85.4,85.4c-28.7,28.7-57.5,57.5-86.2,86.2c-26.7,26.7-53.4,53.4-80,80
						c-22.6,22.6-45.3,45.3-67.9,67.9c-16.2,16.2-32.4,32.4-48.7,48.7c-7.7,7.7-15.8,15.2-23.2,23.2c-0.3,0.3-0.7,0.7-1,1
						C2.5,744.5,4.2,746.2,5.4,745.1L5.4,745.1z"/>
				</g>
			</g>
			<g>
				<g>
					<path class="st4" d="M40,779.8c5.3-5.3,10.6-10.6,15.9-15.9c14.4-14.4,28.8-28.8,43.2-43.2c21.2-21.2,42.4-42.4,63.7-63.7
						c25.9-25.9,51.7-51.7,77.6-77.6c28.5-28.5,56.9-56.9,85.4-85.4c28.7-28.7,57.5-57.5,86.2-86.2c26.7-26.7,53.4-53.4,80-80
						c22.6-22.6,45.3-45.3,67.9-67.9c16.2-16.2,32.4-32.4,48.7-48.7c7.7-7.7,15.8-15.2,23.2-23.2c0.3-0.3,0.7-0.7,1-1
						c1.1-1.1-0.6-2.9-1.8-1.8c-5.3,5.3-10.6,10.6-15.9,15.9c-14.4,14.4-28.8,28.8-43.2,43.2c-21.2,21.2-42.4,42.4-63.7,63.7
						c-25.9,25.9-51.7,51.7-77.6,77.6c-28.5,28.5-56.9,56.9-85.4,85.4c-28.7,28.7-57.5,57.5-86.2,86.2c-26.7,26.7-53.4,53.4-80,80
						c-22.6,22.6-45.3,45.3-67.9,67.9c-16.2,16.2-32.4,32.4-48.7,48.7c-7.7,7.7-15.8,15.2-23.2,23.2c-0.3,0.3-0.7,0.7-1,1
						C37.1,779.1,38.9,780.9,40,779.8L40,779.8z"/>
				</g>
			</g>
			<g>
				<g>
					<path class="st4" d="M74.7,814.4c5.3-5.3,10.6-10.6,15.9-15.9c14.4-14.4,28.8-28.8,43.2-43.2c21.2-21.2,42.4-42.4,63.7-63.7
						c25.9-25.9,51.7-51.7,77.6-77.6c28.5-28.5,56.9-56.9,85.4-85.4c28.7-28.7,57.5-57.5,86.2-86.2c26.7-26.7,53.4-53.4,80-80
						c22.6-22.6,45.3-45.3,67.9-67.9c16.2-16.2,32.4-32.4,48.7-48.7c7.7-7.7,15.8-15.2,23.2-23.2c0.3-0.3,0.7-0.7,1-1
						c1.1-1.1-0.6-2.9-1.8-1.8c-5.3,5.3-10.6,10.6-15.9,15.9c-14.4,14.4-28.8,28.8-43.2,43.2c-21.2,21.2-42.4,42.4-63.7,63.7
						c-25.9,25.9-51.7,51.7-77.6,77.6c-28.5,28.5-56.9,56.9-85.4,85.4c-28.7,28.7-57.5,57.5-86.2,86.2c-26.7,26.7-53.4,53.4-80,80
						c-22.6,22.6-45.3,45.3-67.9,67.9c-16.2,16.2-32.4,32.4-48.7,48.7c-7.7,7.7-15.8,15.2-23.2,23.2c-0.3,0.3-0.7,0.7-1,1
						C71.8,813.8,73.6,815.6,74.7,814.4L74.7,814.4z"/>
				</g>
			</g>
			<g>
				<g>
					<path class="st4" d="M109.4,849.1c5.3-5.3,10.6-10.6,15.9-15.9c14.4-14.4,28.8-28.8,43.2-43.2c21.2-21.2,42.4-42.4,63.7-63.7
						c25.9-25.9,51.7-51.7,77.6-77.6c28.5-28.5,56.9-56.9,85.4-85.4c28.7-28.7,57.5-57.5,86.2-86.2c26.7-26.7,53.4-53.4,80-80
						c22.6-22.6,45.3-45.3,67.9-67.9c16.2-16.2,32.4-32.4,48.7-48.7c7.7-7.7,15.8-15.2,23.2-23.2c0.3-0.3,0.7-0.7,1-1
						c1.1-1.1-0.6-2.9-1.8-1.8c-5.3,5.3-10.6,10.6-15.9,15.9c-14.4,14.4-28.8,28.8-43.2,43.2c-21.2,21.2-42.4,42.4-63.7,63.7
						c-25.9,25.9-51.7,51.7-77.6,77.6c-28.5,28.5-56.9,56.9-85.4,85.4c-28.7,28.7-57.5,57.5-86.2,86.2c-26.7,26.7-53.4,53.4-80,80
						c-22.6,22.6-45.3,45.3-67.9,67.9c-16.2,16.2-32.4,32.4-48.7,48.7c-7.7,7.7-15.8,15.2-23.2,23.2c-0.3,0.3-0.7,0.7-1,1
						C106.5,848.5,108.2,850.2,109.4,849.1L109.4,849.1z"/>
				</g>
			</g>
			<g>
				<g>
					<path class="st4" d="M144,883.8c5.3-5.3,10.6-10.6,15.9-15.9c14.4-14.4,28.8-28.8,43.2-43.2c21.2-21.2,42.4-42.4,63.7-63.7
						c25.9-25.9,51.7-51.7,77.6-77.6c28.5-28.5,56.9-56.9,85.4-85.4c28.7-28.7,57.5-57.5,86.2-86.2c26.7-26.7,53.4-53.4,80-80
						c22.6-22.6,45.3-45.3,67.9-67.9c16.2-16.2,32.4-32.4,48.7-48.7c7.7-7.7,15.8-15.2,23.2-23.2c0.3-0.3,0.7-0.7,1-1
						c1.1-1.1-0.6-2.9-1.8-1.8c-5.3,5.3-10.6,10.6-15.9,15.9c-14.4,14.4-28.8,28.8-43.2,43.2c-21.2,21.2-42.4,42.4-63.7,63.7
						c-25.9,25.9-51.7,51.7-77.6,77.6c-28.5,28.5-56.9,56.9-85.4,85.4c-28.7,28.7-57.5,57.5-86.2,86.2c-26.7,26.7-53.4,53.4-80,80
						c-22.6,22.6-45.3,45.3-67.9,67.9c-16.2,16.2-32.4,32.4-48.7,48.7c-7.7,7.7-15.8,15.2-23.2,23.2c-0.3,0.3-0.7,0.7-1,1
						C141.1,883.1,142.9,884.9,144,883.8L144,883.8z"/>
				</g>
			</g>
			<g>
				<g>
					<path class="st4" d="M178.7,918.4c5.3-5.3,10.6-10.6,15.9-15.9c14.4-14.4,28.8-28.8,43.2-43.2c21.2-21.2,42.4-42.4,63.7-63.7
						c25.9-25.9,51.7-51.7,77.6-77.6c28.5-28.5,56.9-56.9,85.4-85.4c28.7-28.7,57.5-57.5,86.2-86.2c26.7-26.7,53.4-53.4,80-80
						c22.6-22.6,45.3-45.3,67.9-67.9c16.2-16.2,32.4-32.4,48.7-48.7c7.7-7.7,15.8-15.2,23.2-23.2c0.3-0.3,0.7-0.7,1-1
						c1.1-1.1-0.6-2.9-1.8-1.8c-5.3,5.3-10.6,10.6-15.9,15.9c-14.4,14.4-28.8,28.8-43.2,43.2c-21.2,21.2-42.4,42.4-63.7,63.7
						c-25.9,25.9-51.7,51.7-77.6,77.6c-28.5,28.5-56.9,56.9-85.4,85.4c-28.7,28.7-57.5,57.5-86.2,86.2c-26.7,26.7-53.4,53.4-80,80
						c-22.6,22.6-45.3,45.3-67.9,67.9c-16.2,16.2-32.4,32.4-48.7,48.7c-7.7,7.7-15.8,15.2-23.2,23.2c-0.3,0.3-0.7,0.7-1,1
						C175.8,917.8,177.6,919.6,178.7,918.4L178.7,918.4z"/>
				</g>
			</g>
			<g>
				<g>
					<path class="st4" d="M213.4,953.1c5.3-5.3,10.6-10.6,15.9-15.9c14.4-14.4,28.8-28.8,43.2-43.2c21.2-21.2,42.4-42.4,63.7-63.7
						c25.9-25.9,51.7-51.7,77.6-77.6c28.5-28.5,56.9-56.9,85.4-85.4c28.7-28.7,57.5-57.5,86.2-86.2c26.7-26.7,53.4-53.4,80-80
						c22.6-22.6,45.3-45.3,67.9-67.9c16.2-16.2,32.4-32.4,48.7-48.7c7.7-7.7,15.8-15.2,23.2-23.2c0.3-0.3,0.7-0.7,1-1
						c1.1-1.1-0.6-2.9-1.8-1.8c-5.3,5.3-10.6,10.6-15.9,15.9c-14.4,14.4-28.8,28.8-43.2,43.2c-21.2,21.2-42.4,42.4-63.7,63.7
						c-25.9,25.9-51.7,51.7-77.6,77.6c-28.5,28.5-56.9,56.9-85.4,85.4c-28.7,28.7-57.5,57.5-86.2,86.2c-26.7,26.7-53.4,53.4-80,80
						c-22.6,22.6-45.3,45.3-67.9,67.9c-16.2,16.2-32.4,32.4-48.7,48.7c-7.7,7.7-15.8,15.2-23.2,23.2c-0.3,0.3-0.7,0.7-1,1
						C210.5,952.5,212.2,954.2,213.4,953.1L213.4,953.1z"/>
				</g>
			</g>
			<g>
				<g>
					<path class="st4" d="M563.5,951.3c-5.3-5.3-10.6-10.6-15.9-15.9c-14.4-14.4-28.8-28.8-43.2-43.2
						c-21.2-21.2-42.4-42.4-63.7-63.7c-25.9-25.9-51.7-51.7-77.6-77.6c-28.5-28.5-56.9-56.9-85.4-85.4
						c-28.7-28.7-57.5-57.5-86.2-86.2c-26.7-26.7-53.4-53.4-80-80c-22.6-22.6-45.3-45.3-67.9-67.9c-16.2-16.2-32.4-32.4-48.7-48.7
						c-7.7-7.7-15.2-15.8-23.2-23.2c-0.3-0.3-0.7-0.7-1-1c-1.1-1.1-2.9,0.6-1.8,1.8c5.3,5.3,10.6,10.6,15.9,15.9
						c14.4,14.4,28.8,28.8,43.2,43.2c21.2,21.2,42.4,42.4,63.7,63.7c25.9,25.9,51.7,51.7,77.6,77.6c28.5,28.5,56.9,56.9,85.4,85.4
						c28.7,28.7,57.5,57.5,86.2,86.2c26.7,26.7,53.4,53.4,80,80c22.6,22.6,45.3,45.3,67.9,67.9c16.2,16.2,32.4,32.4,48.7,48.7
						c7.7,7.7,15.2,15.8,23.2,23.2c0.3,0.3,0.7,0.7,1,1C562.8,954.2,564.6,952.5,563.5,951.3L563.5,951.3z"/>
				</g>
			</g>
			<g>
				<g>
					<path class="st4" d="M598.1,916.7c-5.3-5.3-10.6-10.6-15.9-15.9c-14.4-14.4-28.8-28.8-43.2-43.2
						c-21.2-21.2-42.4-42.4-63.7-63.7c-25.9-25.9-51.7-51.7-77.6-77.6c-28.5-28.5-56.9-56.9-85.4-85.4
						c-28.7-28.7-57.5-57.5-86.2-86.2c-26.7-26.7-53.4-53.4-80-80c-22.6-22.6-45.3-45.3-67.9-67.9C62,380.5,45.8,364.3,29.5,348
						c-7.7-7.7-15.2-15.8-23.2-23.2c-0.3-0.3-0.7-0.7-1-1c-1.1-1.1-2.9,0.6-1.8,1.8c5.3,5.3,10.6,10.6,15.9,15.9
						c14.4,14.4,28.8,28.8,43.2,43.2c21.2,21.2,42.4,42.4,63.7,63.7c25.9,25.9,51.7,51.7,77.6,77.6c28.5,28.5,56.9,56.9,85.4,85.4
						c28.7,28.7,57.5,57.5,86.2,86.2c26.7,26.7,53.4,53.4,80,80c22.6,22.6,45.3,45.3,67.9,67.9c16.2,16.2,32.4,32.4,48.7,48.7
						c7.7,7.7,15.2,15.8,23.2,23.2c0.3,0.3,0.7,0.7,1,1C597.5,919.6,599.3,917.8,598.1,916.7L598.1,916.7z"/>
				</g>
			</g>
			<g>
				<g>
					<path class="st4" d="M632.8,882c-5.3-5.3-10.6-10.6-15.9-15.9c-14.4-14.4-28.8-28.8-43.2-43.2c-21.2-21.2-42.4-42.4-63.7-63.7
						c-25.9-25.9-51.7-51.7-77.6-77.6c-28.5-28.5-56.9-56.9-85.4-85.4c-28.7-28.7-57.5-57.5-86.2-86.2c-26.7-26.7-53.4-53.4-80-80
						c-22.6-22.6-45.3-45.3-67.9-67.9c-16.2-16.2-32.4-32.4-48.7-48.7c-7.7-7.7-15.2-15.8-23.2-23.2c-0.3-0.3-0.7-0.7-1-1
						c-1.1-1.1-2.9,0.6-1.8,1.8c5.3,5.3,10.6,10.6,15.9,15.9c14.4,14.4,28.8,28.8,43.2,43.2c21.2,21.2,42.4,42.4,63.7,63.7
						c25.9,25.9,51.7,51.7,77.6,77.6c28.5,28.5,56.9,56.9,85.4,85.4c28.7,28.7,57.5,57.5,86.2,86.2c26.7,26.7,53.4,53.4,80,80
						c22.6,22.6,45.3,45.3,67.9,67.9c16.2,16.2,32.4,32.4,48.7,48.7c7.7,7.7,15.2,15.8,23.2,23.2c0.3,0.3,0.7,0.7,1,1
						C632.2,884.9,633.9,883.1,632.8,882L632.8,882z"/>
				</g>
			</g>
			<g>
				<g>
					<path class="st4" d="M667.5,847.3c-5.3-5.3-10.6-10.6-15.9-15.9c-14.4-14.4-28.8-28.8-43.2-43.2
						c-21.2-21.2-42.4-42.4-63.7-63.7c-25.9-25.9-51.7-51.7-77.6-77.6c-28.5-28.5-56.9-56.9-85.4-85.4
						c-28.7-28.7-57.5-57.5-86.2-86.2c-26.7-26.7-53.4-53.4-80-80c-22.6-22.6-45.3-45.3-67.9-67.9c-16.2-16.2-32.4-32.4-48.7-48.7
						c-7.7-7.7-15.2-15.8-23.2-23.2c-0.3-0.3-0.7-0.7-1-1c-1.1-1.1-2.9,0.6-1.8,1.8c5.3,5.3,10.6,10.6,15.9,15.9
						c14.4,14.4,28.8,28.8,43.2,43.2c21.2,21.2,42.4,42.4,63.7,63.7c25.9,25.9,51.7,51.7,77.6,77.6c28.5,28.5,56.9,56.9,85.4,85.4
						c28.7,28.7,57.5,57.5,86.2,86.2c26.7,26.7,53.4,53.4,80,80c22.6,22.6,45.3,45.3,67.9,67.9c16.2,16.2,32.4,32.4,48.7,48.7
						c7.7,7.7,15.2,15.8,23.2,23.2c0.3,0.3,0.7,0.7,1,1C666.8,850.2,668.6,848.5,667.5,847.3L667.5,847.3z"/>
				</g>
			</g>
			<g>
				<g>
					<path class="st4" d="M702.1,812.7c-5.3-5.3-10.6-10.6-15.9-15.9c-14.4-14.4-28.8-28.8-43.2-43.2
						c-21.2-21.2-42.4-42.4-63.7-63.7c-25.9-25.9-51.7-51.7-77.6-77.6c-28.5-28.5-56.9-56.9-85.4-85.4
						c-28.7-28.7-57.5-57.5-86.2-86.2c-26.7-26.7-53.4-53.4-80-80c-22.6-22.6-45.3-45.3-67.9-67.9c-16.2-16.2-32.4-32.4-48.7-48.7
						c-7.7-7.7-15.2-15.8-23.2-23.2c-0.3-0.3-0.7-0.7-1-1c-1.1-1.1-2.9,0.6-1.8,1.8c5.3,5.3,10.6,10.6,15.9,15.9
						c14.4,14.4,28.8,28.8,43.2,43.2c21.2,21.2,42.4,42.4,63.7,63.7c25.9,25.9,51.7,51.7,77.6,77.6c28.5,28.5,56.9,56.9,85.4,85.4
						c28.7,28.7,57.5,57.5,86.2,86.2c26.7,26.7,53.4,53.4,80,80c22.6,22.6,45.3,45.3,67.9,67.9c16.2,16.2,32.4,32.4,48.7,48.7
						c7.7,7.7,15.2,15.8,23.2,23.2c0.3,0.3,0.7,0.7,1,1C701.5,815.6,703.3,813.8,702.1,812.7L702.1,812.7z"/>
				</g>
			</g>
			<g>
				<g>
					<path class="st4" d="M736.8,778c-5.3-5.3-10.6-10.6-15.9-15.9c-14.4-14.4-28.8-28.8-43.2-43.2c-21.2-21.2-42.4-42.4-63.7-63.7
						c-25.9-25.9-51.7-51.7-77.6-77.6c-28.5-28.5-56.9-56.9-85.4-85.4c-28.7-28.7-57.5-57.5-86.2-86.2c-26.7-26.7-53.4-53.4-80-80
						c-22.6-22.6-45.3-45.3-67.9-67.9c-16.2-16.2-32.4-32.4-48.7-48.7c-7.7-7.7-15.2-15.8-23.2-23.2c-0.3-0.3-0.7-0.7-1-1
						c-1.1-1.1-2.9,0.6-1.8,1.8c5.3,5.3,10.6,10.6,15.9,15.9c14.4,14.4,28.8,28.8,43.2,43.2c21.2,21.2,42.4,42.4,63.7,63.7
						c25.9,25.9,51.7,51.7,77.6,77.6c28.5,28.5,56.9,56.9,85.4,85.4c28.7,28.7,57.5,57.5,86.2,86.2c26.7,26.7,53.4,53.4,80,80
						c22.6,22.6,45.3,45.3,67.9,67.9c16.2,16.2,32.4,32.4,48.7,48.7c7.7,7.7,15.2,15.8,23.2,23.2c0.3,0.3,0.7,0.7,1,1
						C736.2,780.9,737.9,779.1,736.8,778L736.8,778z"/>
				</g>
			</g>
			<g>
				<g>
					<path class="st4" d="M771.5,743.3c-5.3-5.3-10.6-10.6-15.9-15.9c-14.4-14.4-28.8-28.8-43.2-43.2
						c-21.2-21.2-42.4-42.4-63.7-63.7c-25.9-25.9-51.7-51.7-77.6-77.6c-28.5-28.5-56.9-56.9-85.4-85.4
						c-28.7-28.7-57.5-57.5-86.2-86.2c-26.7-26.7-53.4-53.4-80-80c-22.6-22.6-45.3-45.3-67.9-67.9c-16.2-16.2-32.4-32.4-48.7-48.7
						c-7.7-7.7-15.2-15.8-23.2-23.2c-0.3-0.3-0.7-0.7-1-1c-1.1-1.1-2.9,0.6-1.8,1.8c5.3,5.3,10.6,10.6,15.9,15.9
						c14.4,14.4,28.8,28.8,43.2,43.2c21.2,21.2,42.4,42.4,63.7,63.7c25.9,25.9,51.7,51.7,77.6,77.6c28.5,28.5,56.9,56.9,85.4,85.4
						c28.7,28.7,57.5,57.5,86.2,86.2c26.7,26.7,53.4,53.4,80,80c22.6,22.6,45.3,45.3,67.9,67.9c16.2,16.2,32.4,32.4,48.7,48.7
						c7.7,7.7,15.2,15.8,23.2,23.2c0.3,0.3,0.7,0.7,1,1C770.8,746.2,772.6,744.5,771.5,743.3L771.5,743.3z"/>
				</g>
			</g>
			<g>
				<g>
					<path class="st4" d="M806.1,708.7c-5.3-5.3-10.6-10.6-15.9-15.9c-14.4-14.4-28.8-28.8-43.2-43.2
						c-21.2-21.2-42.4-42.4-63.7-63.7c-25.9-25.9-51.7-51.7-77.6-77.6c-28.5-28.5-56.9-56.9-85.4-85.4
						c-28.7-28.7-57.5-57.5-86.2-86.2c-26.7-26.7-53.4-53.4-80-80c-22.6-22.6-45.3-45.3-67.9-67.9c-16.2-16.2-32.4-32.4-48.7-48.7
						c-7.7-7.7-15.2-15.8-23.2-23.2c-0.3-0.3-0.7-0.7-1-1c-1.1-1.1-2.9,0.6-1.8,1.8c5.3,5.3,10.6,10.6,15.9,15.9
						c14.4,14.4,28.8,28.8,43.2,43.2c21.2,21.2,42.4,42.4,63.7,63.7c25.9,25.9,51.7,51.7,77.6,77.6c28.5,28.5,56.9,56.9,85.4,85.4
						c28.7,28.7,57.5,57.5,86.2,86.2c26.7,26.7,53.4,53.4,80,80c22.6,22.6,45.3,45.3,67.9,67.9c16.2,16.2,32.4,32.4,48.7,48.7
						c7.7,7.7,15.2,15.8,23.2,23.2c0.3,0.3,0.7,0.7,1,1C805.5,711.6,807.3,709.8,806.1,708.7L806.1,708.7z"/>
				</g>
			</g>
		</g>
	</g>
</g>
<g id="pineapple-mouth-5">
	<g>
		<path d="M385.4,486.4c0,0-1.7,12.7-11.6,11.8c-9.9-0.8-11.9-11.8-11.9-11.8H385.4z"/>
		<g>
			<path d="M378.1,484.4c-0.2,1.4-0.6,2.8-1.1,4.1c-0.2,0.5-1.1,2.1-2.1,2.2c-2.3,0.2-3.6-1.5-4.5-2.9c-0.5-0.8-0.9-1.6-1.3-3.5
				c-2.4,3.2-4.8,6.3-7.2,9.5c7.8,0,15.7,0,23.5,0c9.7,0,9.7-15,0-15c-7.8,0-15.7,0-23.5,0c-5.2,0-8.1,4.8-7.2,9.5
				c1.9,9.6,10.3,17.4,20.2,17.4c9.4,0,16.4-8.5,17.7-17.4c0.6-4-1-8.1-5.2-9.2C383.8,478.2,378.7,480.4,378.1,484.4z"/>
		</g>
	</g>
</g>
<g id="pineapple-mouth-4">
	<g>
		<g>
			<path d="M355.9,484.3c1.8,9,9.4,15.4,18.4,15.7c8.5,0.3,14.5-8,15.7-15.7c0.7-4.7-6.5-6.8-7.2-2c-0.7,4.6-3.2,9.9-8.4,10.2
				c-5.9,0.4-10.1-4.9-11.2-10.2C362.1,477.6,354.9,479.6,355.9,484.3L355.9,484.3z"/>
		</g>
	</g>
</g>
<g id="pineapple-mouth-3">
	<g>
		<g>
			<path d="M357.4,493.2c8.9,5.1,24.2,5.6,30.1-4.2c2.5-4.2-4-7.9-6.5-3.8c-3.7,6.1-14.6,4.6-19.9,1.5
				C357,484.3,353.3,490.8,357.4,493.2L357.4,493.2z"/>
		</g>
	</g>
</g>
<g id="pineapple-mouth-2">
	<g>
		<g>
			<path d="M358.3,496.6c6.6-2.4,15.4-2.5,22.1,0c4.5,1.7,6.5-5.6,2-7.2c-7.7-2.9-18.4-2.8-26,0C351.8,491,353.8,498.3,358.3,496.6
				L358.3,496.6z"/>
		</g>
	</g>
</g>
<g id="pineapple-mouth-1">
	<g>
		<g>
			<path d="M360.9,493.7c1.9-7.3,13.2-7.1,15.3,0c1.3,4.6,8.6,2.7,7.2-2c-4-14.1-26-14.6-29.7,0
				C352.5,496.4,359.8,498.4,360.9,493.7L360.9,493.7z"/>
		</g>
	</g>
</g>
<g id="pineapple-mouth-0">
	<g>
		<path d="M379.8,492.7c-2.8-11.7-20.4-10.1-22.5,0L379.8,492.7z"/>
		<g>
			<path d="M383.4,491.7c-4-14.1-26-14.6-29.7,0c-0.6,2.4,1.1,4.7,3.6,4.7c7.5,0,15,0,22.5,0c4.8,0,4.8-7.5,0-7.5
				c-7.5,0-15,0-22.5,0c1.2,1.6,2.4,3.2,3.6,4.7c1.9-7.3,13.2-7.1,15.3,0C377.5,498.3,384.8,496.4,383.4,491.7z"/>
		</g>
	</g>
</g>
<g id="pineapple-leaves">
	<path class="st5" d="M372.4,332.6l12.9-15.1c0,0-37.6-131.2-79.5-164.4s-90.2-36.2-90.2-36.2s19.3,91.3,32.2,107.9
		C260.7,241.4,372.4,332.6,372.4,332.6z"/>
	<g>
		<path class="st6" d="M377.8,324.7l6.4-7.4c0,0-37.6-131.2-79.5-164.4c-36.6-29-78.1-35-88-36C244.3,133.2,320.6,188.6,377.8,324.7
			z"/>
	</g>
	<path class="st7" d="M402.4,325.3l-10.8-14.6c0,0,31.6-127.2,66.8-159.3s75.8-35.1,75.8-35.1s-16.2,88.4-27.1,104.5
		S402.4,325.3,402.4,325.3z"/>
	<g>
		<path class="st8" d="M329.2,283.3l35.6,55.7l0,0c0,0-60-31.4-75.6-31.7S329.2,283.3,329.2,283.3z"/>
		<path class="st9" d="M265.8,279.7c0,0,47.8-8.2,66.7,2l-37.2,33.4C295.3,315.1,261.2,299.9,265.8,279.7z"/>
	</g>
	<path class="st10" d="M382.8,325.9l15.2,0.4c0,0,69.4-125,67.3-171.6c-2.1-46.7-23-109.2-23-109.2s-46.4,57.1-50,76
		S382.8,325.9,382.8,325.9z"/>
	<path class="st7" d="M368.8,325.3l16-6.8c0,0,25.3-184.8,6.2-235.2C371.9,32.9,334.3,14,334.3,14s-24.9,107.7-21.8,130.3
		C315.5,166.9,368.8,325.3,368.8,325.3z"/>
	<g>
		<path class="st11" d="M392.7,120.2c-3.6,18.9-9.5,204.4-9.5,204.4l2.6,0.1L442,45C436.4,52.1,396.1,102.6,392.7,120.2z"/>
	</g>
	<g>
		<path class="st12" d="M390.8,82.1c-16.4-43.3-46.4-63.3-54.6-68.1c17.7,42.6,57.4,157.9,43.1,305.6l5.4-2.3
			C384.6,317.3,409.9,132.5,390.8,82.1z"/>
	</g>
	<g>
		<path class="st6" d="M394.8,316.7l7.2,9.7c0,0,93.9-88.4,104.7-104.5c9.5-14.1,23.1-83.5,26.4-100.7
			C507.5,141.9,438.1,205.7,394.8,316.7z"/>
	</g>
	<g>
		<path class="st8" d="M406.1,277.4l-20.5,58.2l2.4,3.4c0,0,50.7-34.7,69.3-35C475.9,303.6,406.1,277.4,406.1,277.4z"/>
		<path class="st9" d="M485.6,275.2c0,0-56.4-6.5-79,2.2l57.6,37C464.2,314.3,490.6,292.1,485.6,275.2z"/>
	</g>
	<path class="st13" d="M422.3,274.5c0,0,0-0.1-0.1-0.1c-0.9,13.3-50.4,35.6-52,36.2c-1.2,0.4-27.9-12.2-42-24.3
		c11.8,17.3,32.1,46.8,36.6,52.7c6.5,8.5,23.2,0,23.2,0S423.2,279.8,422.3,274.5z"/>
	<path class="st13" d="M319.5,273.5C319.5,273.5,319.5,273.5,319.5,273.5C319.5,273.5,319.6,273.5,319.5,273.5
		C319.5,273.5,319.5,273.5,319.5,273.5z"/>
	<path class="st14" d="M422.3,274.4c0.2-2.8-1.8-5.2-6.8-6.9c-28.9-10-90.5,0-90.5,0c-3.7,1.6-5.4,3.7-5.5,6.1
		C320,273.5,419.8,269.4,422.3,274.4z"/>
	<path class="st14" d="M328.2,286.2c-5-7.4-8.5-12.5-8.7-12.7C319.4,277.2,322.9,281.7,328.2,286.2z"/>
	<path class="st14" d="M370.2,310.6c1.6-0.5,51.2-22.8,52-36.2c-2.5-5-102.2-0.9-102.7-0.9c0,0,0,0,0,0c0.1,0.2,3.6,5.3,8.7,12.7
		C342.4,298.4,369,311,370.2,310.6z"/>
</g>
<g id="pineapple-right-eye">
	<g>
		<ellipse cx="420.4" cy="444.4" rx="11.5" ry="21.9"/>
		<ellipse class="st15" cx="417.4" cy="432.2" rx="1.7" ry="3.2"/>
	</g>
</g>
<g id="pineapple-left-eye">
	<g>
		<ellipse cx="321.9" cy="444.4" rx="11.5" ry="21.9"/>
		<ellipse class="st15" cx="318.8" cy="432.2" rx="1.7" ry="3.2"/>
	</g>
</g>
</svg>
